<svg height="94" viewBox="0 0 489 94" width="489" xmlns="http://www.w3.org/2000/svg"><g fill="none"><path d="m0 0h93.1v93.1h-93.1z" fill="#ff3034"/><g fill="#fffefe"><path d="m34.1 65.2c0 2.9-2.4 5.3-5.3 5.3s-5.3-2.4-5.3-5.3 2.4-5.3 5.3-5.3c2.9.1 5.3 2.4 5.3 5.3"/><path d="m79.9 59.8c-3.4-23.9-22.3-42.8-46.2-46.2-2.8 1.5-5.4 3.3-7.6 5.5v5.1c23.8 0 43.2 19.4 43.2 43.2h5.1c2.2-2.3 4.1-4.8 5.5-7.6"/><path d="m83.9 43.8c0-18.9-15.3-34.2-34.2-34.2-1.2 0-2.4.1-3.5.2l-.8 2.2c16.8 5.9 30.1 19.2 36 36l2.3-.8c.1-1.1.2-2.2.2-3.4"/><path d="m49.7 69.7c.8-8.5-2.9-16.4-9.3-21.2-3.3-2.5-7.4-4.2-11.9-4.7-1.2-.1-2-1.2-1.9-2.3s1-1.9 2.1-1.9h.3c4.8.5 9.3 2.2 13 4.8 8.1 5.6 13 15.2 11.9 25.7-.2 1.7-.5 3.2-.9 4.8l6.2 1.7c1.8-.5 3.6-1.2 5.3-2 .4-2.4.7-4.8.7-7.3 0-19.5-14.5-35.8-33.2-38.6-2.3-.3-4.5-.3-6.2.1-5.8 1.5-10 6.7-10 12.9 0 5.9 3.9 11 9.3 12.7 1 .3 2.6.5 3.3.6 5.9 1 10.4 6.1 10.4 12.3 0 2.5-.7 4.8-2 6.7l4.3 2.7c2.1.5 4.2.9 6.4 1.1 1-2.4 1.9-5.2 2.2-8.1"/><path d="m50.1 84.4c-10.9 0-21.1-4.2-28.7-11.9-7.7-7.7-11.9-17.9-11.9-28.7 0-10.9 4.2-21.1 11.9-28.7.6-.6 1.6-.6 2.2 0s.6 1.6 0 2.2c-7.1 7.1-11 16.5-11 26.6 0 10 3.9 19.5 11 26.6s16.5 11 26.6 11c10 0 19.5-3.9 26.6-11 .6-.6 1.6-.6 2.2 0s.6 1.6 0 2.2c-7.9 7.5-18.1 11.7-28.9 11.7"/></g><g fill="#0e0d0d" transform="translate(119 15)"><path d="m90.7 62.8v-62.1h19.4c2.7 0 5.2-.1 7.3 0 3.4.2 5.8.7 8.5 3.4 2.3 2.2 3 4.5 3.1 7.5v8.6 4.8c0 1.6.1 1.8-.1 3.1-.4 3.4-1.8 5.4-3.2 7-1.3 1.5-2.9 2.5-5.3 2.9-2.2.3-5.2.2-8.4.2-3.3 0-9.7 0-12.9 0l-.1 24.4zm8.3-31.9h10.8c1.6 0 3.6.1 5.6-.1 1.6-.2 2.9-.3 3.8-1.1 2-1.9 1.7-4.7 1.6-8.8 0-1.7 0-3.3-.1-4.8-.1-1.3.2-4.8-1.4-6.4-1.6-1.7-3.7-1.5-5.1-1.5-1.5 0-2.9 0-4.4 0h-10.7zm11-30.2c2.7 0 5.1-.1 7.3 0 3.4.1 5.8.7 8.5 3.4"/><path d="m177.5 62.8h-9s-2.6-13.6-3.9-18.2c-1.1-4.3-2.8-6-3.9-6.6-1.5-.8-3-.9-4.5-.9l-11-.1.1 25.7h-8v-61.6c4.6-.1 10.9 0 19.3 0h5.5c1.6 0 3.4 0 4.5.2 2.5.6 3.6 1.4 4.8 2.7 2.7 2.9 2.8 7.8 2.8 14.7 0 4.5.2 10-1.3 12.5-1.2 2.1-3 3-6.2 3.7h-.3c3.9 1.1 5.9 3.6 6.8 8.8zm-32.3-33h10.9c2.1 0 5.5.2 7.5-.2.7-.2 1.2-.5 1.6-1 .3-.4.5-1 .6-1.6.3-1.8.2-4.8.2-7.5 0-2 0-4.1-.1-6.1 0-1.6-.4-3-1.1-3.9-1-1.1-2.3-1.1-4.2-1.1-1.6-.1-3.4 0-4.7 0l-10.7.1z"/><path d="m36.2 55.2-.1 7.6c-4.9 0-12.8 0-23.9 0-3.4 0-6.2-1-8.2-3s-3-4.7-3.1-8.1v-39.9c.1-3.4 1.1-6.1 3.1-8.1s4.8-3 8.2-3c11.1 0 19 .1 23.9.1v7.6h-22.5c-1.6 0-2.8.4-3.4 1.3-.7.9-1 2.4-1 4.4v12.4h23.6v7.2h-23.6v15.7c0 2 .3 3.5 1 4.4s1.8 1.3 3.4 1.3z"/><path d="m218.5 55.1-.1 7.6c-4.9 0-12.8 0-23.9 0-3.4 0-6.2-1-8.2-3s-3-4.7-3.1-8.1v-39.9c.1-3.4 1.1-6.1 3.1-8.1s4.8-3 8.2-3c11.1 0 19 .1 23.9.1v7.6h-22.5c-1.6 0-2.8.4-3.4 1.3-.7.9-1 2.4-1 4.4v12.4h23.6v7.2h-23.6v15.7c0 2 .3 3.5 1 4.4s1.8 1.3 3.4 1.3z"/><path d="m326 62.6h-8.1v-61.7h8.1z"/><path d="m369 8.4h-21.1c-1.9 0-3.2.4-4 1.3s-1.1 2.4-1.1 4.4v13.4h22.8v7.2h-22.9v27.9h-8.1v-50.3c0-3.6 1-6.5 3-8.5s4.8-3 8.3-3c10.8 0 18.3 0 23.2.1-.1-.1-.1 7.5-.1 7.5z"/><path d="m68.5 35.3c-3.2-.1-11.9.2-14.6-.2-4.1-.7-6.4-2.5-8-5.3-1.6-2.9-1.2-8-1.2-12.6 0-4.9-.1-8.5 1.3-11.2.5-1 1.1-1.9 2-2.6 3-2.7 8.3-2.3 15.2-2.3 6.6 0 11.3-.1 16.2 0v7.5c-4.3 0-11.6-.1-18-.1-2.5 0-4.8-.1-6.5.3-.3.1-.5.2-.8.3-.3.2-.7.5-.8.9-.7 1.1-.7 2.8-.7 4.7 0 2-.2 9.2.4 10.2 1.1 1.7 2.4 1.8 4.3 1.7h6.9c2.7 0 5.9 0 7.2.2 2.3.3 4.1.9 5.5 1.6 1.9 1 2.8 2 3.8 3.7 1.1 1.8 1.2 3.7 1.2 6.1v6.1c0 2.1.1 6.2-.2 8.4-.6 3.9-1.9 6.3-3.9 8-1.5 1.2-3.3 2-5.9 2.3-1.4.2-3 .2-4.7.2-1.3 0-2.8 0-4.3 0-5.8 0-12.5 0-18.4 0v-7.8h18.3 6.2c1.9 0 2.7-.1 3.5-.9.7-.7.8-1.9.8-3.7 0-.4 0-2.4 0-4.3 0-1.6 0-3.3 0-3.6 0-2.3.2-4.7-.9-5.9-1-1.5-1.7-1.7-3.9-1.7z"/><path d="m250.9 35.3c-3.2-.1-11.9.2-14.6-.2-4.1-.7-6.4-2.5-8-5.3-1.6-2.9-1.2-8-1.2-12.6 0-4.9-.1-8.5 1.3-11.2.5-1 1.1-1.9 2-2.6 3-2.7 8.3-2.3 15.2-2.3 6.6 0 11.3-.1 16.2 0v7.5c-4.3 0-11.6-.1-18-.1-2.5 0-4.8-.1-6.5.3-.3.1-.5.2-.8.3-.3.2-.7.5-.8.9-.7 1.1-.7 2.8-.7 4.7 0 2-.2 9.2.4 10.2 1.1 1.7 2.4 1.8 4.3 1.7h6.9c2.7 0 5.9 0 7.2.2 2.3.3 4.1.9 5.5 1.6 1.9 1 2.7 2 3.7 3.7 1.1 1.9 1.3 3.7 1.3 6.1v6.1c0 2.1.1 6.2-.2 8.4-.6 3.9-1.9 6.3-3.9 8-1.5 1.2-3.3 2-5.9 2.3-1.4.2-3 .2-4.7.2-1.3 0-2.8 0-4.3 0-5.8 0-12.5 0-18.4 0v-7.8h18.3 6.2c1.9 0 2.7-.1 3.5-.9.7-.7.8-1.9.8-3.7 0-.4 0-2.4 0-4.3 0-1.6 0-3.3 0-3.6 0-2.3.2-4.7-.9-5.9-1-1.5-1.8-1.7-3.9-1.7z"/><path d="m295.8 35.3c-3.2-.1-11.9.2-14.6-.2-4.1-.7-6.4-2.5-8-5.3-1.6-2.9-1.2-8-1.2-12.6 0-4.9-.1-8.5 1.3-11.2.5-1 1.1-1.9 2-2.6 3-2.7 8.3-2.3 15.2-2.3 6.6 0 11.3-.1 16.2 0v7.5c-4.3 0-11.6-.1-18-.1-2.5 0-4.8-.1-6.5.3-.3.1-.5.2-.8.3-.3.2-.7.5-.8.9-.7 1.1-.7 2.8-.7 4.7 0 2-.2 9.2.4 10.2 1.1 1.7 2.4 1.8 4.3 1.7h6.9c2.7 0 5.9 0 7.2.2 2.3.3 4.1.9 5.5 1.6 1.9 1 2.7 2 3.7 3.7 1.1 1.9 1.3 3.7 1.3 6.1v6.1c0 2.1.1 6.2-.2 8.4-.6 3.9-1.9 6.3-3.9 8-1.5 1.2-3.3 2-5.9 2.3-1.4.2-3 .2-4.7.2-1.3 0-2.8 0-4.3 0-5.8 0-12.5 0-18.4 0v-7.8h18.3 6.2c1.9 0 2.7-.1 3.5-.9.7-.7.8-1.9.8-3.7 0-.4 0-2.4 0-4.3 0-1.6 0-3.3 0-3.6 0-2.3.2-4.7-.9-5.9-1-1.5-1.7-1.7-3.9-1.7z"/></g></g></svg>