<?xml version="1.0" encoding="UTF-8"?>
<svg viewBox="0 0 120 55" xmlns="http://www.w3.org/2000/svg">
 <g transform="translate(-214.25 -611.51)">
  <path d="m263.92 617.22 0.84008 48.567c1e-3 0.0759-0.0213 0.0692 0 0.10502 2.601-1.3541 4.9214-1.8448 6.9306-1.5226 1.8698 0.29979 3.2813 1.1893 4.6204 1.9427l-0.84008-48.83c-2.1362 1.268-4.2527 1.9308-6.3006 1.7852-1.8981-0.13491-3.6466-0.94906-5.2505-2.0477z" fill="#ff8220" opacity=".99"/>
  <path d="m289.75 623.99c-4.1218 4.1428-8.4041 4.8252-12.181 4.1479l11.394 37.699c0.22445-0.21151 0.47814-0.44802 0.68257-0.63006 2.6271-2.3396 5.9692-3.7214 10.028-3.5703 0.51588 0.0192 0.9994 0.0924 1.4701 0.15743l-11.394-37.804zm0.52505 7.6132 1.3126 4.4629-8.7683 2.6252-1.3126-4.4629 8.7683-2.6252z" fill="#ff811e" opacity=".99"/>
  <path d="m323.93 613.54c-2.6995 1.4785-5.2261 2.3483-7.7182 2.2577-2.5688-0.0932-4.9783-0.99645-7.8232-2.1527-0.48694 0.043-0.92444 0.10688-1.1551 0.21003l-0.21002 51.402c0.23153 0.0996 0.6472 0.17827 1.1551 0.21002 6.1556-2.516 11.172-1.9241 15.489-0.10502 0.50633-0.046 0.93383-0.15709 1.1551-0.26252l0.21002-51.402c-0.21231-0.0919-0.64593-0.11609-1.1026-0.15742zm-13.966 10.869h12.129v4.2529h-12.129v-4.2529zm0 7.2982h12.129v4.3054h-12.129v-4.3054z" fill="#9d9d9d" opacity=".99"/>
  <path d="m256.94 639.43-35.598 0.15751c1.2211 2.285 1.7668 4.3698 1.6277 6.2481-0.13072 1.7651-0.88014 3.191-1.5752 4.5679-0.0239 0.0472-0.0285 0.11072-0.0524 0.15743l35.598-0.15743c-1.2145-2.0088-1.7317-4.0396-1.5752-5.8806 0.16113-1.8934 0.86841-3.5128 1.5752-5.093zm-0.0524 14.859-35.493 0.21002c2.2045 4.1156 1.9807 7.8494 0.10501 10.921l35.388-0.15743c-1.281-2.1815-1.824-4.2213-1.6802-6.0906 0.1413-1.8363 0.87741-3.4198 1.6802-4.883z" fill="#9c9c9c" opacity=".99"/>
 </g>
</svg>
