<?xml version="1.0" encoding="UTF-8"?>
<svg clip-rule="evenodd" fill-rule="evenodd" image-rendering="optimizeQuality" shape-rendering="geometricPrecision" text-rendering="geometricPrecision" viewBox="0 0 5329 1789" xml:space="preserve" xmlns="http://www.w3.org/2000/svg">
 <defs>
  <style type="text/css">
    .fil0 {fill:black}
  </style>
 </defs>
  <path class="fil0" d="m551 1789h-493c-32 0-58-26-58-58v-249c0-32 26-58 58-58h493c32 0 58 26 58 58v249c0 32-26 58-58 58zm1245-480h-251c-32 0-58-26-58-58v-249c0-32 26-58 58-58h251c32 0 58 26 58 58v249c0 32-26 58-58 58zm2348 3h-251c-32 0-58-26-58-58v-249c0-32 26-58 58-58h251c32 0 58 26 58 58v249c0 32-26 58-58 58zm-470-1h-251c-32 0-58-26-58-58v-249c0-32 26-58 58-58h251c32 0 58 26 58 58v249c0 32-26 58-58 58zm-470-1h-251c-32 0-58-26-58-58v-249c0-32 26-58 58-58h251c32 0 58 26 58 58v249c0 32-26 58-58 58zm-470-1h-251c-32 0-58-26-58-58v-249c0-32 26-58 58-58h251c32 0 58 26 58 58v249c0 32-26 58-58 58zm-470-1h-251c-32 0-58-26-58-58v-249c0-32 26-58 58-58h251c32 0 58 26 58 58v249c0 32-26 58-58 58zm-939-1h-251c-32 0-58-26-58-58v-249c0-32 26-58 58-58h251c32 0 58 26 58 58v249c0 32-26 58-58 58zm3078-468h-251c-32 0-58-26-58-58v-249c0-32 26-58 58-58h251c32 0 58 26 58 58v249c0 32-26 58-58 58zm-470-1h-251c-32 0-58-26-58-58v-249c0-32 26-58 58-58h251c32 0 58 26 58 58v249c0 32-26 58-58 58zm-470-1h-251c-32 0-58-26-58-58v-249c0-32 26-58 58-58h251c32 0 58 26 58 58v249c0 32-26 58-58 58zm-470-1h-251c-32 0-58-26-58-58v-249c0-32 26-58 58-58h251c32 0 58 26 58 58v249c0 32-26 58-58 58zm-470-1h-251c-32 0-58-26-58-58v-249c0-32 26-58 58-58h251c32 0 58 26 58 58v249c0 32-26 58-58 58zm-470-1h-251c-32 0-58-26-58-58v-249c0-32 26-58 58-58h251c32 0 58 26 58 58v249c0 32-26 58-58 58zm-470-1h-251c-32 0-58-26-58-58v-249c0-32 26-58 58-58h251c32 0 58 26 58 58v249c0 32-26 58-58 58zm-470-1h-251c-32 0-58-26-58-58v-249c0-32 26-58 58-58h251c32 0 58 26 58 58v249c0 32-26 58-58 58zm2948-466h-251c-32 0-58-26-58-58v-249c0-32 26-58 58-58h251c32 0 58 26 58 58v249c0 32-26 58-58 58zm-470-1h-251c-32 0-58-26-58-58v-249c0-32 26-58 58-58h251c32 0 58 26 58 58v249c0 32-26 58-58 58zm-470-1h-251c-32 0-58-26-58-58v-249c0-32 26-58 58-58h251c32 0 58 26 58 58v249c0 32-26 58-58 58zm-470-1h-251c-32 0-58-26-58-58v-249c0-32 26-58 58-58h251c32 0 58 26 58 58v249c0 32-26 58-58 58zm-470-1h-251c-32 0-58-26-58-58v-249c0-32 26-58 58-58h251c32 0 58 26 58 58v249c0 32-26 58-58 58zm-470-1h-251c-32 0-58-26-58-58v-249c0-32 26-58 58-58h251c32 0 58 26 58 58v249c0 32-26 58-58 58zm-470-1h-251c-32 0-58-26-58-58v-249c0-32 26-58 58-58h251c32 0 58 26 58 58v249c0 32-26 58-58 58zm-470-1h-251c-32 0-58-26-58-58v-249c0-32 26-58 58-58h251c32 0 58 26 58 58v249c0 32-26 58-58 58zm-470-1h-251c-32 0-58-26-58-58v-249c0-32 26-58 58-58h251c32 0 58 26 58 58v249c0 32-26 58-58 58zm4962 11h-976c-32 0-58-26-58-58v-249c0-32 26-58 58-58h976c32 0 58 26 58 58v249c0 32-26 58-58 58zm0 942h-900c-32 0-58-26-58-58v-249c0-32 26-58 58-58h900c32 0 58 26 58 58v249c0 32-26 58-58 58zm0-482h-636c-32 0-58-26-58-58v-249c0-32 26-58 58-58h636c32 0 58 26 58 58v249c0 32-26 58-58 58zm-4624 0h-590c-32 0-58-26-58-58v-249c0-32 26-58 58-58h590c32 0 58 26 58 58v249c0 32-26 58-58 58zm209 471h-798c-32 0-58-26-58-58v-249c0-32 26-58 58-58h798c32 0 58 26 58 58v249c0 32-26 58-58 58zm3350 116h348c32 0 58 26 58 58v249c0 32-26 58-58 58h-348c-32 0-58-26-58-58v-249c0-32 26-58 58-58zm568 0h493c32 0 58 26 58 58v249c0 32-26 58-58 58h-493c-32 0-58-26-58-58v-249c0-32 26-58 58-58zm-786 365h-2651c-32 0-58-26-58-58v-249c0-32 26-58 58-58h2651c32 0 58 26 58 58v249c0 32-26 58-58 58zm-2869 0h-348c-32 0-58-26-58-58v-249c0-32 26-58 58-58h348c32 0 58 26 58 58v249c0 32-26 58-58 58z"/>
</svg>
